<svg xmlns="http://www.w3.org/2000/svg" viewBox="0 0 1833.22 3019.38"><defs><style>.cls-1{fill:#e7e7e5;}.cls-2{fill:#f5be6b;}.cls-3{fill:#756764;}.cls-4{fill:#fff;}</style></defs><g id="Layer_2" data-name="Layer 2"><g id="Layer_1-2" data-name="Layer 1"><path class="cls-1" d="M1534.18,83.72s0,0,0,0,0,.13,0,.21a14,14,0,0,1,1,1.25C1535.23,85,1534.84,84.45,1534.18,83.72Z"/><path class="cls-1" d="M1793.69,1426.33c-.65-136.43,12-274-10.76-409.4-9.31-55.4-20.91-112.41-40.64-165.15-23.06-61.62-61.11-107.3-100.94-158.25-40.21-51.44-62.09-114-48.86-179.25-48.64.08-100.41-9.3-141.22-12.74-16.83-1.42-16.93-27.82,0-26.39,48.73,4.1,97.31,9.45,146.31,8.46,12.35-.25,74.38,1.7,79.2-14.85,10.36-35.64-112.26-45.3-126.38-45.38-17-.09-17-26.48,0-26.39l.62,0a12.12,12.12,0,0,1,1.32-3c5.56-7.82,4.1-31,1-41.73-70.41,18.87-160.9,6.82-226.3,4.88C1201.21,353.4,1075.88,345,950,345c-239.85-.06-479.69.48-719.36-9.27a163.73,163.73,0,0,0-5,35.24c-.31,8.9,2.09,19.57-4.68,26.54a12.34,12.34,0,0,1-5.31,3.09,12.66,12.66,0,0,1-5.63,3.23c-23.84,6.33-114.55,15.33-71.26,59.28,10.76,10.92,70.2,12.82,76.84,13.47,47.44,4.63,95.55,7.06,143.17,9.39,53.92,2.65,107.85,1.6,161.78.23,49.13-1.25,109.11,7.46,157.11-3,16.59-3.6,23.61,21.85,7,25.45-33,7.17-66.23,2.43-99.79,2.54-50.54.17-101,2.94-151.59,2.86-74.27-.13-151.4-2.92-225.63-11.88a12.9,12.9,0,0,1,.61,3.29c-.83,47.74,2.24,95.17-12.5,141.23-13.34,41.7-37.54,76.82-59.33,114.33-28.29,48.72-53.53,104.25-73.3,157-19.69,52.5-18.09,104.58-19.9,158.76a12,12,0,0,1,4.26,9.66C46.7,1217.7,37,1348.72,31.64,1479.84c-2.69,66.17,5,131.26,5,197.31,0,62.61-5.48,125.48-8,188-9.21,232.64,10.81,458.95,26.42,690.21.12.32.35.5.46.85,38.81,129.08,41.31,253.85,169,330.59,111.83,67.21,246.43,89.27,374.73,96,236.12,12.42,478.06,18.72,713.9-2.58,112-10.11,231.12-34.41,316.78-112.61,84-76.73,116.67-188.37,133.68-297.29,39.06-250.11,40.26-506.26,40.26-758.75a12.11,12.11,0,0,1,2.68-7.66C1805.63,1678,1794.29,1552.29,1793.69,1426.33Z"/><path class="cls-2" d="M186,307.77C423.82,318.83,662,319.29,900,318.71c121.57-.3,242.28,4.47,363.69,9.68,57.87,2.49,115.79,4.14,173.71,4,40-.13,94.5,2.83,133.23-13.45,2.35-6.65,9.79-11.19,16.74-8.54,32.09-28.65,28.33-88.36,7-122.26a11,11,0,0,1-.51-1.38c-7.85-3.63-11.79-17.07-2.38-24.31,54.69-42,43.73-101.39-7.42-123.33,4.47,24.09,2.61,53.74-5.6,75.33-6,15.75-31.49,8.88-25.45-7,7.74-20.36,9.77-50.13,3.82-71.14a13,13,0,0,1-.36-4.58c-1.92-.25-3.72-.65-5.7-.82-5.89-.5-11.79-.69-17.7-.7,1.94,9.38,1.63,19.26,1.34,28.73-.19,5.88-.49,11.75-.42,17.64,0,1.42.75,5.81.28,7.2a7.8,7.8,0,0,0-1.14-1.21,11.17,11.17,0,0,1,1.17,1.46c-.3,1.4.94,1.92,1,1.26,7.7,10.92-8.87,25.88-20.84,15.94-8.1-6.74-7-20.85-6.82-30.23.21-11.68,2.67-25.2-.38-36.59A13.23,13.23,0,0,1,1507,31c-7.93.43-15.86.88-23.75,1.15-2,.07-4,.12-6,.18a13.72,13.72,0,0,1,.62,2.31c1.27,21-1.08,41.95,0,62.91.87,17-25.53,16.9-26.4,0-1.08-21,1.27-41.93,0-62.91a10.63,10.63,0,0,1,.22-1.53c-9.61.28-19.22.59-28.82.87a12,12,0,0,1,9.23,12.1c0,12,.1,24-.33,35.92a134.65,134.65,0,0,1-1.09,15.42c-.08.74-.29,1.45-.41,2.18,1.18,3.09,1,6.67-1.87,10.33l-1,1.31c-6.74,8.73-20.48,8.64-24.12-3.15-2.12-6.86,1.72-16.62,2-23.7.53-12.76.43-25.54.42-38.31a12,12,0,0,1,8.11-11.82q-18,.52-36.06,1.1a13,13,0,0,1,1,5c-.17,20.35-1.61,40.66-1.9,61-.24,17-26.64,17-26.4,0,.29-20.34,1.73-40.65,1.91-61a12.68,12.68,0,0,1,.89-4.19c-9.43.32-18.86.54-28.29.93,3.28,10.51,2,22.34,1.4,33.14-.35,6.69-.85,13.4-.74,20.1,0,4.29,2.57,9.38-1.06,7.25,14.65,8.61,1.36,31.41-13.32,22.79-24.6-14.45-4.9-55-11.78-76.51a12.71,12.71,0,0,1-.5-5.92c-7.11.21-14.22.46-21.32.69,2.92,22.81,2.11,45.46,2,68.44-.1,17-26.49,17-26.39,0,.11-21.66,1.72-43.59-1.44-65.11a13.55,13.55,0,0,1,.12-2.49C1159.9,42,1068,42.14,975.93,42.14q-78.79,0-157.57-.56a132.65,132.65,0,0,1,1.25,24.59c-.31,9.25-1.89,20,2.55,28.54C830,109.77,807.22,123.1,799.37,108c-10.8-20.73-2.36-42.5-7-64.15a12.79,12.79,0,0,1,0-2.39c-10.74-.08-21.48,0-32.23-.11.14.44.43.72.54,1.2,4.72,22.06,2.58,44.08,2.37,66.42-.15,17-26.55,17-26.4,0,.19-19.75,2.75-39.92-1.42-59.4a12.68,12.68,0,0,1,1.1-8.46c-13.44-.19-26.87-.14-40.31-.42,3.43,22.36-2.79,47.48,5.55,68.58,6.27,15.82-19.26,22.62-25.45,7-8.87-22.44-1.52-47.37-5.71-70.53a14,14,0,0,1,.11-5.78c-16.65-.43-33.31-.75-50-1.38-124.24-4.76-259.29-20.91-383.2-5A12.2,12.2,0,0,1,231,37.85c-50.72,14.36-75.2,78-41.83,120.91a13.57,13.57,0,0,1,2.86,9.79c4.18,5.77,4.44,14.25-3.62,18.56C145.92,209.79,156.27,277.55,186,307.77Z"/><path class="cls-1" d="M314.52,105.49c-5.85-19.12-5.9-39.58-5.25-59.4.56-17-25.84-17-26.4,0-.72,22.08-.32,45.13,6.2,66.42C294,128.7,319.51,121.8,314.52,105.49Z"/><path class="cls-1" d="M373.61,118.83c-5.24-13.73-5.72-27.7-5.24-42.24.55-17-25.84-17-26.4,0-.55,16.66.18,33.54,6.19,49.26S379.69,134.74,373.61,118.83Z"/><path class="cls-1" d="M431.27,69c-.49-16.95-26.89-17-26.39,0,.44,15.26,1.86,30.47,1.9,45.75,0,17,26.44,17,26.4,0C433.14,99.44,431.72,84.23,431.27,69Z"/><path class="cls-1" d="M499.9,65.15c-1.27-16.83-27.68-17-26.4,0,1.44,19,1.83,38.1,1.91,57.19.07,17,26.46,17,26.39,0C501.72,103.25,501.33,84.2,499.9,65.15Z"/><path class="cls-1" d="M551.36,72.78c-2.19-16.6-28.61-16.82-26.39,0,1.93,14.61,4.16,29.18,5.72,43.84,1.78,16.72,28.19,16.9,26.4,0C555.52,102,553.3,87.39,551.36,72.78Z"/><path class="cls-1" d="M957.69,63.25v49.56c0,17,26.4,17,26.4,0V63.25C984.09,46.26,957.69,46.24,957.69,63.25Z"/><path class="cls-1" d="M1052.24,59.74c-4.73-16.28-30.21-9.35-25.45,7,2.64,9-.82,18.43-2,27.5s-.55,16.8,3.37,25.21c7.16,15.39,29.92,2,22.79-13.32-2.72-5.85,1.38-16.33,2.27-22.43C1054.38,75.55,1054.58,67.76,1052.24,59.74Z"/><path class="cls-1" d="M1098.76,67.06v38.13c0,17,26.39,17,26.39,0V67.06C1125.15,50.08,1098.76,50.05,1098.76,67.06Z"/><path class="cls-1" d="M1287.64,214.46c-69.56,11.79-146.33,9.1-216.92,13.5a2198.41,2198.41,0,0,1-245,1.56c-160.63-7.85-321.37-8-482-15.53-17-.79-16.94,25.6,0,26.39,169.16,7.9,338.61,9.53,507.85,16.74,82,3.5,163,.71,244.82-4.44,64.87-4.09,134.41-2,198.25-12.77C1311.36,237.08,1304.28,211.64,1287.64,214.46Z"/><path class="cls-1" d="M1506.85,203c-20.63,7.85-42,6.31-63.61,7.69-23.42,1.5-46.63,4.66-70.13,5.18-17,.38-17,26.78,0,26.4,26.84-.6,53.39-4.54,80.2-5.71,20.85-.92,40.78-.59,60.56-8.1C1529.6,222.5,1522.78,197,1506.85,203Z"/><path class="cls-1" d="M536.26,393.18c-79.43-.15-158.85-2-238.28-1.91-17,0-17,26.42,0,26.4,79.43-.13,158.85,1.75,238.28,1.9C553.25,419.6,553.27,393.21,536.26,393.18Z"/><path class="cls-1" d="M927.94,2658.82c-53.41,14.1-114.56,4.3-169.31,6.3-58.31,2.13-116.7,8.22-174.52,15.94-86.79,11.6-190.34,26.16-270.26,64.84-41.37,20-107.14,65.19-56,109.74,24.74,21.57,64.82,30.05,94.68,40.12,53.23,17.94,103.92,34.37,160.44,35.49,17,.34,17-26.06,0-26.39-46.13-.92-88.1-12.7-131.59-27-17.37-5.73-34.83-11.47-52-17.68-20.47-6.48-56.9-13.76-57.42-40.91-.26-13.85,10-22.09,18-31.76,5.69-6.87,13.07-12.29,20.67-16.84,52.51-31.46,118.21-32.79,176.57-45.58,84.91-18.62,172.4-29.16,259.28-33,61.24-2.71,128.77,8,188.52-7.77C951.36,2679.94,944.4,2654.47,927.94,2658.82Z"/><path class="cls-1" d="M1492.08,2752.82c-62.62-33.64-141.78-32.77-210-45.05-74.17-13.35-146-34.5-221.61-38-17-.77-16.94,25.62,0,26.4,65.61,3,127.77,19.52,191.76,32.55,56.62,11.53,115.26,13.84,171.21,28.34,24.63,6.38,63.42,15,80.71,35.41,57.74,68.15-30.38,91-64.21,100.55-56,15.87-112.81,22.5-170.85,25.06-218.47,9.64-434.61-8.19-652.91-7.53-17,0-17,26.44,0,26.39,152.11-.45,303.62,15.51,455.44,13.31,133.8-1.95,292.5,9.92,418-45.76C1565.4,2870.88,1564.36,2791.66,1492.08,2752.82Z"/><path class="cls-1" d="M331.77,625c-4.49,90.51-74.89,140.36-123.8,207.88-38.18,52.72-61.27,111.84-75.9,174.93-7.67,33.06,43.22,47.17,50.9,14C205.51,924.58,254.39,862,316.84,786.84,356.63,739,381.46,687.37,384.56,625,386.25,591,333.45,591.08,331.77,625Z"/><path class="cls-1" d="M257.5,2670.26c-80.69-244.41-85.66-489.11-89.44-744.87-3.7-250-28.81-514.21,20.64-760.28,6.67-33.17-44.2-47.37-50.9-14-50.59,251.71-26.29,518.93-22.53,774.31,3.85,261.56,9,509.56,91.33,758.9C217.2,2716.4,268.19,2702.65,257.5,2670.26Z"/><path class="cls-3" d="M1534.18,83.72s0,0,0,0,0,.13,0,.21a14,14,0,0,1,1,1.25C1535.23,85,1534.84,84.45,1534.18,83.72Z"/><path class="cls-3" d="M1833.22,1811.63c-.6-128.58-12.52-256.78-13.13-385.3-.58-121.65,9.27-243.72-4.48-365-10.57-93.16-29.75-192.59-74.52-276C1692.55,694.86,1591.2,628.08,1619.6,513c21.69-2,42.24-6.39,60-15.31,22.36-11.22,32.72-31.27,16.91-53.45-23.08-32.36-75.37-42.93-117.59-46,1.78-6.9,2-14.68,2.26-21,.44-10.8.7-23.09-2.83-33.46,0,0,0,0,0-.09.87-.37,1.86-.56,2.72-.94a12.46,12.46,0,0,0,8.42-1.22c57.17-30.37,58.89-117.14,27.61-166.75-.07-.11-.18-.15-.25-.27C1663.94,128,1675,47.61,1602.5,15.4c-47.89-21.27-108.22-9.94-158.84-8.85-81,1.76-161.88,7-242.89,8.64-163.1,3.34-327.22,3.16-490.33-.19-158.62-3.25-326.89-27.63-484.6-6.42-4.62.62-7.27,3.07-8.56,6.15-63.78,22.69-88.37,99.69-51.62,155.64-45.36,33.95-38.31,111.68-2,151.92.89,5.78,4.88,11.14,12.35,11.5,9.38.45,18.76.6,28.14,1a223.93,223.93,0,0,0-4.73,43.88c-.14.2-.13.48-.26.69-35.8,8.94-113.49,22.36-110.94,70,2.14,40.08,62.81,45.95,95.28,50a12.72,12.72,0,0,0-1.62,6.09c-1.1,63.59-.92,121.11-30.66,179.32-23.66,46.3-51.56,88.95-73.41,136.41-18.09,39.28-38.41,78.1-50.19,119.92-14.37,51-8.73,103-11.59,155.29a11.08,11.08,0,0,0,4.65,10.15c-1.56,124.52-10.33,248.85-15.4,373.25-2.7,66.16,5,131.26,5,197.31,0,62.61-5.48,125.48-8,188-9.49,239.43,12,472.1,27.8,710.42a12,12,0,0,0,0,2c.17.84.36,1.69.53,2.54a11,11,0,0,0,6.08,7.86c21.23,83.78,28.86,176.23,84,245.31,50.47,63.2,127.13,100.72,201.9,127.2,99.32,35.17,206.44,46.89,311.21,50.12,121.45,3.75,243.64,8.73,365.13,8.59,173.37-.19,374,7.31,536.6-61.58C1702.77,2886.81,1767.8,2728,1792,2558.39c34.82-244.37,38.3-492.39,38.37-738.79A12,12,0,0,0,1833.22,1811.63ZM186,307.77c-29.75-30.22-40.1-98,2.34-120.66,8.06-4.31,7.8-12.79,3.62-18.56a13.58,13.58,0,0,0-2.86-9.79C155.75,115.81,180.23,52.21,231,37.85a12.27,12.27,0,0,0,6.33-4.26c123.9-15.87,259,.28,383.19,5,16.66.64,33.31.95,50,1.38a14,14,0,0,0-.11,5.78c4.19,23.16-3.16,48.1,5.71,70.53,6.19,15.61,31.72,8.8,25.46-7-8.35-21.1-2.13-46.22-5.56-68.58,13.43.28,26.88.23,40.32.42a12.68,12.68,0,0,0-1.12,8.46c4.18,19.48,1.62,39.65,1.43,59.4-.15,17,26.24,17,26.4,0,.21-22.34,2.35-44.36-2.38-66.42-.1-.48-.39-.75-.52-1.2,10.73.11,21.48,0,32.23.11a12,12,0,0,0,0,2.39c4.69,21.65-3.75,43.42,7,64.15,7.85,15.07,30.64,1.74,22.79-13.32-4.44-8.52-2.86-19.29-2.55-28.54a131.64,131.64,0,0,0-1.25-24.58q78.78.44,157.57.55c92.06,0,184-.18,275.92-2.65a13.52,13.52,0,0,0-.12,2.48c3.16,21.53,1.55,43.46,1.43,65.12-.09,17,26.31,17,26.4,0,.12-23,.93-45.63-2-68.44,7.1-.23,14.21-.48,21.31-.69a12.72,12.72,0,0,0,.51,5.92c6.88,21.5-12.82,62.06,11.78,76.51,14.68,8.63,28-14.18,13.32-22.79,3.63,2.13,1.11-3,1-7.24-.1-6.71.4-13.42.75-20.11.58-10.8,1.89-22.63-1.4-33.14,9.43-.39,18.86-.61,28.29-.93a13,13,0,0,0-.89,4.19c-.18,20.35-1.62,40.66-1.9,61-.25,17,26.15,17,26.39,0,.29-20.34,1.73-40.65,1.9-61a13,13,0,0,0-1-5q18-.54,36.06-1.09a12,12,0,0,0-8.11,11.82c0,12.77.11,25.55-.42,38.31-.3,7.08-4.14,16.84-2,23.7,3.64,11.79,17.38,11.88,24.12,3.15l1-1.31c2.83-3.66,3.05-7.24,1.87-10.33.12-.73.33-1.44.42-2.18A134.64,134.64,0,0,0,1431.72,82c.43-12,.35-23.94.34-35.92A12,12,0,0,0,1422.82,34c9.6-.28,19.21-.6,28.82-.88a10.63,10.63,0,0,0-.22,1.53c1.27,21-1.08,41.95,0,62.91.87,16.9,27.27,17,26.39,0-1.08-21,1.27-41.94,0-62.91a13,13,0,0,0-.61-2.31c2-.06,4-.11,6-.18,7.89-.27,15.82-.72,23.75-1.15a12.81,12.81,0,0,0,.21,3.34c3,11.4.59,24.91.39,36.59-.17,9.38-1.3,23.5,6.81,30.23,12,9.94,28.54-5,20.84-16-.06.67-1.3.15-1-1.25a11.17,11.17,0,0,0-1.17-1.46,8.32,8.32,0,0,1,1.14,1.21c.47-1.39-.26-5.77-.28-7.21-.07-5.87.23-11.76.42-17.63.29-9.47.6-19.35-1.34-28.72,5.91,0,11.81.19,17.7.69,2,.17,3.79.57,5.7.82a13.1,13.1,0,0,0,.35,4.59c6,21,3.93,50.77-3.81,71.14-6,15.89,19.46,22.76,25.45,7,8.21-21.58,10.07-51.24,5.61-75.33,51.14,21.94,62.11,81.3,7.41,123.33-9.41,7.24-5.47,20.68,2.38,24.31a11,11,0,0,0,.51,1.38c21.38,33.9,25.14,93.61-7,122.26-7-2.65-14.39,1.89-16.74,8.54-38.73,16.28-93.26,13.32-133.23,13.45-57.93.18-115.84-1.47-173.71-4-121.41-5.21-242.12-10-363.69-9.69C662,319.29,423.83,318.83,186,307.77ZM1763.7,2570.38c-17,108.91-49.65,220.56-133.67,297.28-85.66,78.21-204.83,102.51-316.79,112.62-235.85,21.3-477.78,15-713.9,2.58-128.3-6.75-262.9-28.81-374.73-96-127.7-76.74-130.2-201.51-169-330.59-.1-.34-.33-.53-.45-.85-15.61-231.26-35.63-457.57-26.42-690.21,2.48-62.56,8-125.43,8-188,0-66.05-7.73-131.15-5-197.31C37,1348.72,46.7,1217.7,47.46,1086.44a12,12,0,0,0-4.25-9.67c1.8-54.18.21-106.26,19.9-158.76,19.78-52.7,45-108.23,73.3-157,21.78-37.51,46-72.63,59.33-114.33,14.74-46.06,11.67-93.49,12.5-141.23a13,13,0,0,0-.61-3.29c74.23,9,151.36,11.75,225.63,11.88,50.55.09,101-2.69,151.59-2.86,33.56-.11,66.82,4.63,99.79-2.53,16.6-3.61,9.57-29.06-7-25.46-48,10.44-108,1.73-157.11,3-53.93,1.37-107.87,2.42-161.78-.22-47.62-2.34-95.73-4.77-143.17-9.4-6.64-.65-66.08-2.55-76.84-13.47-43.29-43.95,47.41-52.95,71.26-59.28a12.48,12.48,0,0,0,5.63-3.23,12.18,12.18,0,0,0,5.31-3.09c6.77-7,4.37-17.64,4.69-26.54a162.48,162.48,0,0,1,5-35.24C470.28,345.5,710.11,345,950,345c125.94,0,251.26,8.38,377.07,12.13,65.41,2,155.89,14,226.3-4.88,3.12,10.71,4.58,33.9-1,41.73a12.12,12.12,0,0,0-1.32,3l-.62,0c-17-.09-17,26.3,0,26.39,14.12.08,136.73,9.74,126.38,45.38-4.82,16.55-66.85,14.6-79.2,14.85-49,1-97.58-4.36-146.31-8.46-16.93-1.43-16.83,25,0,26.39,40.8,3.44,92.58,12.82,141.22,12.74-13.23,65.26,8.65,127.81,48.86,179.25,39.83,51,77.87,96.63,100.94,158.25,19.73,52.74,31.33,109.75,40.64,165.15,22.73,135.39,10.11,273,10.76,409.4.6,126,11.94,251.63,13,377.64a12.07,12.07,0,0,0-2.7,7.66C1804,2064.12,1802.76,2320.27,1763.7,2570.38Z"/><path class="cls-3" d="M314.52,105.49c-5.85-19.12-5.9-39.58-5.25-59.4.56-17-25.84-17-26.4,0-.72,22.08-.32,45.13,6.2,66.42C294,128.7,319.51,121.8,314.52,105.49Z"/><path class="cls-3" d="M373.61,118.83c-5.24-13.73-5.72-27.7-5.24-42.24.55-17-25.84-17-26.4,0-.55,16.66.18,33.54,6.19,49.26S379.69,134.74,373.61,118.83Z"/><path class="cls-3" d="M431.27,69c-.49-16.95-26.89-17-26.39,0,.44,15.26,1.86,30.47,1.9,45.75,0,17,26.44,17,26.4,0C433.14,99.44,431.72,84.23,431.27,69Z"/><path class="cls-3" d="M499.9,65.15c-1.27-16.83-27.68-17-26.4,0,1.44,19,1.83,38.1,1.91,57.19.07,17,26.46,17,26.39,0C501.72,103.25,501.33,84.2,499.9,65.15Z"/><path class="cls-3" d="M551.36,72.78c-2.19-16.6-28.61-16.82-26.39,0,1.93,14.61,4.16,29.18,5.72,43.84,1.78,16.72,28.19,16.9,26.4,0C555.52,102,553.3,87.39,551.36,72.78Z"/><path class="cls-3" d="M957.69,63.25v49.56c0,17,26.4,17,26.4,0V63.25C984.09,46.26,957.69,46.24,957.69,63.25Z"/><path class="cls-3" d="M1052.24,59.74c-4.73-16.28-30.21-9.35-25.45,7,2.64,9-.82,18.43-2,27.5s-.55,16.8,3.37,25.21c7.16,15.39,29.92,2,22.79-13.32-2.72-5.85,1.38-16.33,2.27-22.43C1054.38,75.55,1054.58,67.76,1052.24,59.74Z"/><path class="cls-3" d="M1098.76,67.06v38.13c0,17,26.39,17,26.39,0V67.06C1125.15,50.08,1098.76,50.05,1098.76,67.06Z"/><path class="cls-3" d="M1287.64,214.46c-69.56,11.79-146.33,9.1-216.92,13.5a2198.41,2198.41,0,0,1-245,1.56c-160.63-7.85-321.37-8-482-15.53-17-.79-16.94,25.6,0,26.39,169.16,7.9,338.61,9.53,507.85,16.74,82,3.5,163,.71,244.82-4.44,64.87-4.09,134.41-2,198.25-12.77C1311.36,237.08,1304.28,211.64,1287.64,214.46Z"/><path class="cls-3" d="M1506.85,203c-20.63,7.85-42,6.31-63.61,7.69-23.42,1.5-46.63,4.66-70.13,5.18-17,.38-17,26.78,0,26.4,26.84-.6,53.39-4.54,80.2-5.71,20.85-.92,40.78-.59,60.56-8.1C1529.6,222.5,1522.78,197,1506.85,203Z"/><path class="cls-3" d="M536.26,393.18c-79.43-.15-158.85-2-238.28-1.91-17,0-17,26.42,0,26.4,79.43-.13,158.85,1.75,238.28,1.9C553.25,419.6,553.27,393.21,536.26,393.18Z"/><path class="cls-3" d="M927.94,2658.82c-53.41,14.1-114.56,4.3-169.31,6.3-58.31,2.13-116.7,8.22-174.52,15.94-86.79,11.6-190.34,26.16-270.26,64.84-41.37,20-107.14,65.19-56,109.74,24.74,21.57,64.82,30.05,94.68,40.12,53.23,17.94,103.92,34.37,160.44,35.49,17,.34,17-26.06,0-26.39-46.13-.92-88.1-12.7-131.59-27-17.37-5.73-34.83-11.47-52-17.68-20.47-6.48-56.9-13.76-57.42-40.91-.26-13.85,10-22.09,18-31.76,5.69-6.87,13.07-12.29,20.67-16.84,52.51-31.46,118.21-32.79,176.57-45.58,84.91-18.62,172.4-29.16,259.28-33,61.24-2.71,128.77,8,188.52-7.77C951.36,2679.94,944.4,2654.47,927.94,2658.82Z"/><path class="cls-3" d="M1492.08,2752.82c-62.62-33.64-141.78-32.77-210-45.05-74.17-13.35-146-34.5-221.61-38-17-.77-16.94,25.62,0,26.4,65.61,3,127.77,19.52,191.76,32.55,56.62,11.53,115.26,13.84,171.21,28.34,24.63,6.38,63.42,15,80.71,35.41,57.74,68.15-30.38,91-64.21,100.55-56,15.87-112.81,22.5-170.85,25.06-218.47,9.64-434.61-8.19-652.91-7.53-17,0-17,26.44,0,26.39,152.11-.45,303.62,15.51,455.44,13.31,133.8-1.95,292.5,9.92,418-45.76C1565.4,2870.88,1564.36,2791.66,1492.08,2752.82Z"/><path class="cls-4" d="M331.77,625c-4.49,90.51-74.89,140.36-123.8,207.88-38.18,52.72-61.27,111.84-75.9,174.93-7.67,33.06,43.22,47.17,50.9,14C205.51,924.58,254.39,862,316.84,786.84,356.63,739,381.46,687.37,384.56,625,386.25,591,333.45,591.08,331.77,625Z"/><path class="cls-4" d="M257.5,2670.26c-80.69-244.41-85.66-489.11-89.44-744.87-3.7-250-28.81-514.21,20.64-760.28,6.67-33.17-44.2-47.37-50.9-14-50.59,251.71-26.29,518.93-22.53,774.31,3.85,261.56,9,509.56,91.33,758.9C217.2,2716.4,268.19,2702.65,257.5,2670.26Z"/></g></g></svg>